<svg viewBox="0 0 512 512" xmlns="http://www.w3.org/2000/svg"><path d="m436.949219 74.980469c-48.34375-48.351563-112.621094-74.980469-180.988281-74.980469-45.054688 0-89.359376 11.871094-128.125 34.332031-3.582032 2.078125-4.804688 6.664063-2.726563 10.25 2.074219 3.582031 6.664063 4.808594 10.246094 2.730469 36.484375-21.140625 78.1875-32.3125 120.605469-32.3125 64.359374 0 124.871093 25.066406 170.382812 70.585938 45.511719 45.519531 70.574219 106.042968 70.574219 170.414062 0 64.375-25.0625 124.894531-70.574219 170.414062-45.511719 45.515626-106.023438 70.585938-170.382812 70.585938-64.363282 0-124.875-25.066406-170.386719-70.585938-45.511719-45.519531-70.574219-106.039062-70.574219-170.414062 0-74.679688 33.78125-143.925781 92.675781-189.976562 3.265625-2.550782 3.839844-7.265626 1.289063-10.527344-2.550782-3.265625-7.265625-3.839844-10.527344-1.289063-29.972656 23.433594-54.757812 53.769531-71.683594 87.722657-17.753906 35.613281-26.753906 73.992187-26.753906 114.070312 0 68.378906 26.625 132.667969 74.96875 181.019531 48.34375 48.351563 112.621094 74.980469 180.992188 74.980469 68.367187 0 132.644531-26.628906 180.988281-74.980469 48.34375-48.351562 74.96875-112.640625 74.96875-181.019531s-26.625-132.667969-74.96875-181.019531zm0 0"/><path d="m147.613281 350.902344h138.808594c4.140625 0 7.5-3.355469 7.5-7.5 0-4.140625-3.359375-7.5-7.5-7.5h-138.808594c-8.160156 0-14.796875-6.636719-14.796875-14.800782v-130.203124c0-2.113282.449219-4.117188 1.25-5.933594l110.308594 86.289062c3.410156 2.667969 7.496094 4 11.582031 4 4.085938 0 8.171875-1.332031 11.582031-4l110.3125-86.292968c.800782 1.820312 1.25 3.824218 1.25 5.9375v130.203124c0 8.164063-6.636718 14.804688-14.796874 14.804688h-43.566407c-4.144531 0-7.5 3.355469-7.5 7.5 0 4.140625 3.355469 7.5 7.5 7.5h43.566407c16.429687 0 29.796874-13.371094 29.796874-29.804688v-130.203124c0-6.929688-2.378906-13.304688-6.359374-18.371094-.230469-1.75-1.066407-3.378906-2.398438-4.582032-4.886719-4.417968-11.191406-6.847656-17.746094-6.847656h-223.277344c-6.558593 0-12.859374 2.433594-17.75 6.851563-1.328124 1.199219-2.164062 2.832031-2.394531 4.578125-3.980469 5.066406-6.359375 11.445312-6.359375 18.371094v130.207031c0 16.429687 13.367188 29.796875 29.796875 29.796875zm216.691407-174.804688c.171874 0 .335937.019532.503906.023438l-106.511719 83.316406c-1.375 1.078125-3.300781 1.078125-4.679687 0l-106.511719-83.316406c.171875-.007813.335937-.027344.507812-.027344h216.691407zm0 0"/></svg>