<svg viewBox="0 0 512 512" xmlns="http://www.w3.org/2000/svg"><path d="m436.949219 74.980469c-48.34375-48.351563-112.621094-74.980469-180.988281-74.980469-68.371094 0-132.648438 26.628906-180.992188 74.980469-48.34375 48.351562-74.96875 112.640625-74.96875 181.019531 0 47.042969 12.871094 93.039062 37.21875 133.011719 2.15625 3.539062 6.773438 4.660156 10.308594 2.503906 3.539062-2.15625 4.65625-6.769531 2.503906-10.304687-22.917969-37.621094-35.03125-80.921876-35.03125-125.210938 0-64.375 25.0625-124.894531 70.574219-170.414062 45.511719-45.519532 106.023437-70.585938 170.386719-70.585938 64.359374 0 124.871093 25.066406 170.382812 70.585938 45.511719 45.519531 70.574219 106.042968 70.574219 170.414062s-25.0625 124.894531-70.574219 170.414062c-45.511719 45.519532-106.023438 70.585938-170.382812 70.585938-73.890626 0-142.671876-33.214844-188.710938-91.125-2.578125-3.242188-7.300781-3.78125-10.539062-1.203125-3.242188 2.578125-3.78125 7.296875-1.203126 10.539063 48.902344 61.511718 121.964844 96.789062 200.453126 96.789062 68.367187 0 132.644531-26.628906 180.988281-74.980469 48.34375-48.351562 74.96875-112.640625 74.96875-181.019531s-26.625-132.667969-74.96875-181.019531zm0 0"/><path d="m214.863281 212.617188 25.734375-19.378907c4.039063-3.042969 6.148438-8.035156 5.511719-13.027343-.875-6.851563-1.269531-13.832032-1.171875-20.75.207031-14.828126-11.027344-28.046876-25.574219-30.09375l-22.421875-3.160157c-15.179687-2.136719-29.230468 1.925781-39.5625 11.445313-10.347656 9.535156-15.554687 23.226562-14.660156 38.554687 1.351562 23.253907 5.964844 46.195313 13.707031 68.195313 17.292969 49.140625 48.867188 91.078125 91.308594 121.28125 18.996094 13.519531 39.769531 24.296875 61.742187 32.023437 5.882813 2.070313 11.785157 3.097657 17.527344 3.097657 8.386719 0 16.429688-2.195313 23.5625-6.53125 12.007813-7.300782 19.800782-19.683594 21.9375-34.867188l3.09375-21.960938c2.054688-14.5625-7.71875-29.53125-21.78125-33.363281-6.597656-1.796875-13.121094-4.074219-19.394531-6.769531-4.769531-2.046875-10.3125-1.371094-14.464844 1.757812l-25.53125 19.226563c-2.242187 1.6875-5.292969 1.777344-7.589843.222656-14.492188-9.792969-27.570313-21.566406-38.878907-34.992187-2.667969-3.167969-7.402343-3.574219-10.566406-.90625-3.167969 2.667968-3.574219 7.398437-.90625 10.566406 12.199219 14.488281 26.3125 27.191406 41.953125 37.761719 7.601562 5.140625 17.65625 4.871093 25.011719-.671875l25.320312-19.066406c6.832031 2.917968 13.929688 5.386718 21.101563 7.34375 6.792968 1.851562 11.875 9.703124 10.875 16.800781l-3.09375 21.957031c-1.5 10.648438-6.785156 19.222656-14.878906 24.144531-8.105469 4.925781-18.164063 5.671875-28.324219 2.097657-20.644531-7.261719-40.164063-17.386719-58.019531-30.089844-39.90625-28.402344-69.59375-67.835938-85.855469-114.042969-7.273438-20.675781-11.609375-42.238281-12.882813-64.089844-.625-10.753906 2.871094-20.21875 9.847656-26.648437 6.96875-6.417969 16.660157-9.125 27.308594-7.625l22.421875 3.160156c6.96875.980469 12.769531 7.867188 12.667969 15.03125-.101562 7.4375.308594 14.941406 1.226562 22.316406l-25.320312 19.066406c-7.355469 5.539063-10.394531 15.125-7.558594 23.855469 4.375 13.449219 10.179688 26.503907 17.25 38.796875 2.066406 3.589844 6.652344 4.824219 10.242188 2.761719 3.589844-2.066406 4.824218-6.652344 2.761718-10.242187-6.558593-11.394532-11.9375-23.488282-15.984374-35.953126-.859376-2.640624.070312-5.546874 2.308593-7.234374zm0 0"/></svg>